PathFileType	4	(X/Y/Z)	G:\Shared drives\HPL_Drive\Nord Sprinting Study\Kristen_Nord_test\Trimmed_Nord000002.trc
DataRate	CameraRate	NumFrames	NumMarkers	Units	OrigDataRate	OrigDataStartFrame	OrigNumFrames
200.00	200.00	      4	52	mm	200.00	1899	      2170
Frame#	Time	C7			R_Shoulder			L_Shoulder			Sternum			R_humerus			R_elbow_med			R_elbow_lat			R_forearm			R_wrist_radius			R_wrist_ulna			L_humerus			L_elbow_med			L_elbow_lat			L_forearm			L_wrist_radius			L_wrist_ulna			r.ASIS			r.PSIS			r_IC			L.ASIS			L.PSIS			l_IC			r_thigh1			r_thigh2			r_thigh3			r_thigh4			r_thigh5			r_knee			r_mknee			r_shank_antsup			r_sh2			r_sh3			r_sh4			r_ankle			r_mankle			r_calc			r_5meta			r_toe			L_thigh1			L_thigh2			L_thigh3			L_thigh4			L_knee			L_mknee			L_shank_antsup			L_sh2			L_sh3			L_ankle			L_mankle			L_calc			L_5meta			L_toe			
		X1	Y1	Z1	X2	Y2	Z2	X3	Y3	Z3	X4	Y4	Z4	X5	Y5	Z5	X6	Y6	Z6	X7	Y7	Z7	X8	Y8	Z8	X9	Y9	Z9	X10	Y10	Z10	X11	Y11	Z11	X12	Y12	Z12	X13	Y13	Z13	X14	Y14	Z14	X15	Y15	Z15	X16	Y16	Z16	X17	Y17	Z17	X18	Y18	Z18	X19	Y19	Z19	X20	Y20	Z20	X21	Y21	Z21	X22	Y22	Z22	X23	Y23	Z23	X24	Y24	Z24	X25	Y25	Z25	X26	Y26	Z26	X27	Y27	Z27	X28	Y28	Z28	X29	Y29	Z29	X30	Y30	Z30	X31	Y31	Z31	X32	Y32	Z32	X33	Y33	Z33	X34	Y34	Z34	X35	Y35	Z35	X36	Y36	Z36	X37	Y37	Z37	X38	Y38	Z38	X39	Y39	Z39	X40	Y40	Z40	X41	Y41	Z41	X42	Y42	Z42	X43	Y43	Z43	X44	Y44	Z44	X45	Y45	Z45	X46	Y46	Z46	X47	Y47	Z47	X48	Y48	Z48	X49	Y49	Z49	X50	Y50	Z50	X51	Y51	Z51	X52	Y52	Z52	

1899	9.490	1189.37048	1006.66351	996.04510	1328.07300	1018.37543	964.78931	1054.86719	1044.38379	961.76465	1195.35913	1060.48450	866.18732	1458.23413	888.43500	969.25244	1533.36182	765.38763	901.93750	1527.68103	768.39093	982.53247	1603.65137	873.58929	1000.00476	1645.23792	980.35577	978.03644	1680.24963	955.08868	1001.72040	873.75641	944.18982	954.55499	784.99158	874.26086	864.63947	778.99811	860.53198	942.38788	779.67371	1008.50543	969.42712	750.89850	1099.91504	968.63837	807.27557	1100.67114	963.70227	1311.56360	694.32477	590.06995	1254.34998	657.20789	775.20740	1344.01294	732.47626	694.02075	1077.55945	683.72668	580.35864	1140.07898	652.15759	765.50342	1048.27466	725.01312	667.30353	1374.12280	525.15747	446.43921	1378.50708	447.81821	362.64017	1386.52844	399.05893	365.74283	1387.71948	445.35556	516.70319	1373.02832	369.26367	426.10547	1375.45605	354.60141	305.58762	1249.51099	342.94925	316.76471	1398.87854	226.34076	315.95441	1386.22766	106.74291	328.58267	1399.34119	232.38972	392.47433	1387.33875	117.54338	411.16235	1377.15173	-60.96244	380.87683	1298.28113	-49.81481	358.12289	1322.58630	-84.96135	442.92017	1381.80164	-140.44594	285.49295	1347.67957	-112.76381	233.58955	1016.70313	517.89813	437.11041	1017.16461	426.21289	330.93976	1008.61554	430.35776	518.19659	1015.75000	342.85172	413.46274	1005.70441	328.26184	324.79391	1131.77698	321.61215	303.50546	986.09564	214.28203	324.19882	999.53418	228.60213	412.96982	1010.19629	106.55760	420.55554	1015.52020	-71.97617	400.02905	1082.09680	-58.17863	341.41745	1069.39355	-68.50736	440.91895	999.30786	-183.02585	313.80188	1037.70593	-174.41705	254.65060	
1900	9.495	1189.34351	1006.94348	995.70996	1328.06921	1018.65454	964.43451	1054.80383	1044.67517	961.37030	1195.31396	1060.71021	865.80750	1458.13135	888.59833	969.07104	1533.17896	765.35394	901.72968	1527.45972	768.53259	982.41644	1603.52087	873.64276	999.80737	1645.16150	980.36707	977.77142	1680.19885	955.09912	1001.47363	873.78369	944.27142	954.22424	785.10413	874.16779	864.37280	779.08325	860.55066	942.13947	779.62677	1008.64288	968.88318	750.76709	1099.96338	968.07233	807.12146	1100.71521	963.18182	1312.51270	694.86163	590.12213	1254.29688	657.33984	775.08557	1343.95105	732.59259	693.90363	1077.57629	683.77783	580.23724	1140.06226	652.29370	765.36749	1048.22864	725.11652	667.13092	1374.14246	525.14410	446.39661	1378.55505	447.80646	362.67816	1386.57312	399.03027	365.77890	1387.64294	445.36652	516.69287	1372.99683	369.26639	426.11127	1375.45300	354.55222	305.58975	1249.49524	342.93625	316.76932	1398.39075	226.19475	315.80026	1386.07410	106.68072	328.60019	1399.25073	232.36169	392.48721	1387.19458	117.44080	411.18878	1377.01514	-61.13557	381.06180	1298.03198	-49.83489	358.16138	1322.35205	-84.98769	442.93048	1381.33582	-140.51451	285.37787	1347.47693	-112.84850	233.57260	1016.71356	517.93817	437.03470	1017.16309	426.22134	330.88406	1008.61542	430.40469	518.19299	1015.72449	342.89371	413.44662	1005.70715	328.25891	324.75934	1131.73718	321.58231	303.50153	986.07465	214.25810	324.00696	1000.04089	228.15811	413.04495	1010.18787	106.49989	420.55463	1015.52069	-71.97121	400.03156	1082.05420	-58.19069	341.41360	1069.38696	-68.51296	440.87439	999.31433	-183.00247	313.80103	1037.68604	-174.41931	254.64662	
1901	9.500	1189.30652	1007.27551	995.40692	1328.08081	1018.93231	964.09808	1054.75146	1044.95801	960.99097	1195.29297	1060.87915	865.48474	1458.01831	888.76422	968.86145	1532.98389	765.40137	901.61737	1527.24377	768.65344	982.32385	1603.40894	873.73108	999.59961	1644.42346	980.07825	977.53339	1680.17261	955.03424	1001.08423	873.76318	944.40143	953.97406	785.18561	874.09406	864.15686	779.15222	860.58002	941.93390	779.58459	1008.66150	968.54785	750.71045	1100.01038	967.44244	806.99432	1100.79626	962.59296	1312.53296	694.95947	590.02515	1254.27661	657.46954	774.99066	1343.87463	732.68976	693.76093	1077.55566	683.83734	580.00726	1140.01892	652.37769	765.28162	1048.15991	725.16180	667.03833	1374.11414	525.15717	446.32556	1378.77820	447.39728	362.58923	1386.47534	398.90051	365.78152	1387.61353	445.35577	516.69073	1373.21191	369.19601	426.08569	1375.42603	354.47809	305.59720	1249.45422	342.95630	316.74252	1398.31030	226.11324	315.80933	1385.91846	106.61448	328.59836	1399.14941	232.22054	392.52182	1387.01587	117.37538	411.22229	1376.82373	-61.17960	381.05542	1297.81812	-49.86313	358.02820	1322.11267	-85.03519	442.87506	1381.05249	-140.58478	285.38660	1347.20850	-112.91095	233.57346	1016.67108	518.05530	437.00909	1017.21216	426.20477	330.82822	1008.57202	430.50726	518.12567	1015.71014	342.93417	413.41214	1005.71198	328.26166	324.77679	1131.72070	321.58994	303.50800	986.09369	214.30585	324.03760	999.49164	228.57426	412.94046	1010.15942	106.49908	420.52866	1015.41699	-71.99589	400.11584	1082.07922	-58.21251	341.39313	1069.36523	-68.53846	440.86877	999.25348	-183.02228	313.83252	1037.68689	-174.45686	254.65190	
1902	9.505	1189.28296	1007.60809	995.05762	1328.02966	1019.18256	963.77374	1054.63977	1045.21460	960.64124	1195.24963	1061.11292	865.12189	1457.90845	888.93121	968.64777	1532.83167	765.46686	901.49207	1527.08667	768.77905	982.20831	1603.31628	873.81989	999.37067	1644.33765	980.11694	977.24017	1680.01721	955.09314	1000.70520	873.77594	944.50140	953.71814	785.28784	874.02325	863.91736	779.24622	860.63239	941.69019	779.58142	1008.75592	968.05542	750.56299	1100.05212	966.79181	806.85333	1100.90356	962.02039	1312.43115	695.00226	589.93707	1254.22217	657.58020	774.86230	1343.85229	732.82104	693.58954	1077.50305	683.86871	579.88910	1140.00220	652.51306	765.14276	1048.08484	725.21185	666.92126	1374.13013	525.12134	446.26944	1378.72974	447.36313	362.58176	1386.51135	398.88574	365.80252	1387.57971	445.37027	516.70001	1373.05762	369.48187	426.08023	1375.44788	354.43460	305.58804	1249.41223	342.96420	316.70386	1398.19812	226.05215	315.85220	1385.72766	106.55157	328.59634	1399.05017	232.16977	392.56488	1386.85291	117.32202	411.23849	1376.75232	-61.25754	381.13251	1297.59583	-49.85069	358.06360	1321.85669	-85.07509	442.87958	1380.80322	-140.68462	285.38394	1346.95313	-112.97058	233.54381	1016.74109	517.95337	436.87357	1017.20044	426.23950	330.77280	1008.57129	430.49292	518.10315	1015.68323	342.93555	413.41650	1005.70306	328.23907	324.73843	1131.72156	321.53839	303.49634	986.10657	214.30403	324.06830	999.47028	228.56059	412.94302	1010.13171	106.48945	420.52252	1015.38574	-72.00895	400.09482	1082.07959	-58.22710	341.38116	1069.33972	-68.56794	440.85800	999.20728	-183.02800	313.82675	1037.64758	-174.48361	254.58769	
